<mxfile host="app.diagrams.net" modified="2024-03-24T13:47:51.215Z" agent="Mozilla/5.0 (X11; Linux x86_64; rv:91.0) Gecko/20100101 Firefox/91.0" version="24.1.0" etag="h8tnzLgCZb3QPvLpe3yU" type="github">
  <diagram name="Page-1" id="vb958Nm0k1HjrjN-Do-v">
    <mxGraphModel>
      <root>
        <mxCell id="0" />
        <mxCell id="1" parent="0" />
      </root>
    </mxGraphModel>
  </diagram>
</mxfile>
